<mxfile host="app.diagrams.net" modified="2024-03-14T11:34:41.513Z" agent="Mozilla/5.0 (Macintosh; Intel Mac OS X 10_15_7) AppleWebKit/537.36 (KHTML, like Gecko) Chrome/122.0.0.0 Safari/537.36" etag="yw-4oSwkxy-eE87sroZI" version="24.0.6" type="github">
  <diagram name="Page-1" id="OxZRKMKvLeJVwosRMrrJ">
    <mxGraphModel dx="1354" dy="656" grid="0" gridSize="10" guides="1" tooltips="1" connect="1" arrows="1" fold="1" page="0" pageScale="1" pageWidth="827" pageHeight="1169" math="0" shadow="0">
      <root>
        <mxCell id="0" />
        <mxCell id="1" parent="0" />
        <mxCell id="ncI1qLRRV6u1J0Hb2BzP-1" value="" style="shape=actor;whiteSpace=wrap;html=1;" vertex="1" parent="1">
          <mxGeometry x="-144" y="125" width="72" height="101" as="geometry" />
        </mxCell>
      </root>
    </mxGraphModel>
  </diagram>
</mxfile>
